<?xml version="1.0" encoding="utf-8"?>
<!-- Generator: Adobe Illustrator 18.0.0, SVG Export Plug-In . SVG Version: 6.00 Build 0)  -->
<!DOCTYPE svg PUBLIC "-//W3C//DTD SVG 1.1//EN" "http://www.w3.org/Graphics/SVG/1.1/DTD/svg11.dtd">
<svg version="1.1" id="Layer_1" xmlns="http://www.w3.org/2000/svg" xmlns:xlink="http://www.w3.org/1999/xlink" x="0px" y="0px"
	 viewBox="0 0 126 126" enable-background="new 0 0 126 126" xml:space="preserve">
<path d="M100,36.4c0-0.5-0.2-0.9-0.5-1.3L79.8,12.7c0,0,0,0,0,0c-0.1-0.1-0.3-0.2-0.4-0.3c0,0-0.1-0.1-0.1-0.1
	c-0.1-0.1-0.3-0.1-0.4-0.2c0,0-0.1,0-0.1,0c-0.1,0-0.3-0.1-0.5-0.1H30c-2.2,0-4,1.8-4,4v94c0,2.2,1.8,4,4,4h66c2.2,0,4-1.8,4-4V36.7
	C100,36.6,100,36.5,100,36.4z M30,16h46.3v20.5c0,1.1,0.9,2,2,2H96v72.1H30V16z"/>
</svg>
